<mxfile host="Electron" agent="Mozilla/5.0 (Windows NT 10.0; Win64; x64) AppleWebKit/537.36 (KHTML, like Gecko) draw.io/24.7.17 Chrome/128.0.6613.36 Electron/32.0.1 Safari/537.36" version="24.7.17">
  <diagram name="Page-1" id="zndZgjFLslJvmz3W1zZU">
    <mxGraphModel dx="1098" dy="988" grid="1" gridSize="10" guides="1" tooltips="1" connect="1" arrows="1" fold="1" page="1" pageScale="1" pageWidth="850" pageHeight="1100" math="0" shadow="0">
      <root>
        <mxCell id="0" />
        <mxCell id="1" parent="0" />
        <mxCell id="o4oMkmYJ9_egQiQ2ApSp-1" value="Recruiter" style="shape=umlActor;verticalLabelPosition=bottom;verticalAlign=top;html=1;outlineConnect=0;" parent="1" vertex="1">
          <mxGeometry x="100" y="310" width="30" height="60" as="geometry" />
        </mxCell>
        <mxCell id="o4oMkmYJ9_egQiQ2ApSp-2" value="Recruitee" style="shape=umlActor;verticalLabelPosition=bottom;verticalAlign=top;html=1;outlineConnect=0;" parent="1" vertex="1">
          <mxGeometry x="670" y="230" width="30" height="60" as="geometry" />
        </mxCell>
        <mxCell id="o4oMkmYJ9_egQiQ2ApSp-3" value="" style="rounded=0;whiteSpace=wrap;html=1;" parent="1" vertex="1">
          <mxGeometry x="200" y="80" width="440" height="480" as="geometry" />
        </mxCell>
        <mxCell id="o4oMkmYJ9_egQiQ2ApSp-4" value="Generate Quiz" style="ellipse;whiteSpace=wrap;html=1;" parent="1" vertex="1">
          <mxGeometry x="230" y="140" width="120" height="80" as="geometry" />
        </mxCell>
        <mxCell id="o4oMkmYJ9_egQiQ2ApSp-5" value="Edit Quiz" style="ellipse;whiteSpace=wrap;html=1;" parent="1" vertex="1">
          <mxGeometry x="230" y="220" width="120" height="80" as="geometry" />
        </mxCell>
        <mxCell id="o4oMkmYJ9_egQiQ2ApSp-6" value="Publish Quiz" style="ellipse;whiteSpace=wrap;html=1;" parent="1" vertex="1">
          <mxGeometry x="230" y="310" width="120" height="80" as="geometry" />
        </mxCell>
        <mxCell id="o4oMkmYJ9_egQiQ2ApSp-8" value="" style="endArrow=none;html=1;rounded=0;exitX=1;exitY=0.3333333333333333;exitDx=0;exitDy=0;exitPerimeter=0;entryX=0;entryY=0.5;entryDx=0;entryDy=0;" parent="1" source="o4oMkmYJ9_egQiQ2ApSp-1" target="o4oMkmYJ9_egQiQ2ApSp-4" edge="1">
          <mxGeometry width="50" height="50" relative="1" as="geometry">
            <mxPoint x="150" y="320" as="sourcePoint" />
            <mxPoint x="450" y="480" as="targetPoint" />
          </mxGeometry>
        </mxCell>
        <mxCell id="o4oMkmYJ9_egQiQ2ApSp-10" value="Quiz app" style="text;html=1;align=center;verticalAlign=middle;whiteSpace=wrap;rounded=0;" parent="1" vertex="1">
          <mxGeometry x="380" y="90" width="60" height="30" as="geometry" />
        </mxCell>
        <mxCell id="o4oMkmYJ9_egQiQ2ApSp-11" value="Take Quiz" style="ellipse;whiteSpace=wrap;html=1;" parent="1" vertex="1">
          <mxGeometry x="500" y="170" width="120" height="80" as="geometry" />
        </mxCell>
        <mxCell id="o4oMkmYJ9_egQiQ2ApSp-12" value="View Report" style="ellipse;whiteSpace=wrap;html=1;" parent="1" vertex="1">
          <mxGeometry x="240" y="410" width="120" height="80" as="geometry" />
        </mxCell>
        <mxCell id="o4oMkmYJ9_egQiQ2ApSp-13" value="Save/Update Quiz" style="ellipse;whiteSpace=wrap;html=1;" parent="1" vertex="1">
          <mxGeometry x="410" y="430" width="120" height="80" as="geometry" />
        </mxCell>
        <mxCell id="o4oMkmYJ9_egQiQ2ApSp-15" value="View Subimition" style="ellipse;whiteSpace=wrap;html=1;" parent="1" vertex="1">
          <mxGeometry x="500" y="260" width="120" height="80" as="geometry" />
        </mxCell>
        <mxCell id="o4oMkmYJ9_egQiQ2ApSp-16" value="" style="endArrow=none;html=1;rounded=0;exitX=1;exitY=0.3333333333333333;exitDx=0;exitDy=0;exitPerimeter=0;entryX=0.017;entryY=0.6;entryDx=0;entryDy=0;entryPerimeter=0;" parent="1" source="o4oMkmYJ9_egQiQ2ApSp-1" target="o4oMkmYJ9_egQiQ2ApSp-5" edge="1">
          <mxGeometry width="50" height="50" relative="1" as="geometry">
            <mxPoint x="180" y="220" as="sourcePoint" />
            <mxPoint x="230" y="220" as="targetPoint" />
          </mxGeometry>
        </mxCell>
        <mxCell id="o4oMkmYJ9_egQiQ2ApSp-17" value="" style="endArrow=none;html=1;rounded=0;exitX=1;exitY=0.3333333333333333;exitDx=0;exitDy=0;exitPerimeter=0;entryX=0;entryY=0.5;entryDx=0;entryDy=0;" parent="1" source="o4oMkmYJ9_egQiQ2ApSp-1" target="o4oMkmYJ9_egQiQ2ApSp-6" edge="1">
          <mxGeometry width="50" height="50" relative="1" as="geometry">
            <mxPoint x="140" y="340" as="sourcePoint" />
            <mxPoint x="242" y="318" as="targetPoint" />
          </mxGeometry>
        </mxCell>
        <mxCell id="o4oMkmYJ9_egQiQ2ApSp-18" value="" style="endArrow=none;html=1;rounded=0;exitX=1;exitY=0.3333333333333333;exitDx=0;exitDy=0;exitPerimeter=0;entryX=0;entryY=0.5;entryDx=0;entryDy=0;" parent="1" source="o4oMkmYJ9_egQiQ2ApSp-1" target="o4oMkmYJ9_egQiQ2ApSp-12" edge="1">
          <mxGeometry width="50" height="50" relative="1" as="geometry">
            <mxPoint x="140" y="340" as="sourcePoint" />
            <mxPoint x="240" y="410" as="targetPoint" />
          </mxGeometry>
        </mxCell>
        <mxCell id="o4oMkmYJ9_egQiQ2ApSp-19" value="Submit Feed back" style="ellipse;whiteSpace=wrap;html=1;" parent="1" vertex="1">
          <mxGeometry x="500" y="350" width="120" height="80" as="geometry" />
        </mxCell>
        <mxCell id="o4oMkmYJ9_egQiQ2ApSp-21" value="" style="endArrow=classic;html=1;rounded=0;exitX=1;exitY=0.5;exitDx=0;exitDy=0;entryX=0.5;entryY=0;entryDx=0;entryDy=0;dashed=1;" parent="1" source="o4oMkmYJ9_egQiQ2ApSp-4" target="o4oMkmYJ9_egQiQ2ApSp-13" edge="1">
          <mxGeometry width="50" height="50" relative="1" as="geometry">
            <mxPoint x="400" y="530" as="sourcePoint" />
            <mxPoint x="450" y="480" as="targetPoint" />
          </mxGeometry>
        </mxCell>
        <mxCell id="o4oMkmYJ9_egQiQ2ApSp-22" value="&amp;lt;&amp;lt;includes&amp;gt;&amp;gt;" style="edgeLabel;html=1;align=center;verticalAlign=middle;resizable=0;points=[];" parent="o4oMkmYJ9_egQiQ2ApSp-21" vertex="1" connectable="0">
          <mxGeometry x="-0.0769" y="-1" relative="1" as="geometry">
            <mxPoint as="offset" />
          </mxGeometry>
        </mxCell>
        <mxCell id="o4oMkmYJ9_egQiQ2ApSp-25" value="" style="endArrow=classic;html=1;rounded=0;exitX=1;exitY=0.5;exitDx=0;exitDy=0;dashed=1;entryX=0.083;entryY=0.263;entryDx=0;entryDy=0;entryPerimeter=0;" parent="1" source="o4oMkmYJ9_egQiQ2ApSp-6" target="o4oMkmYJ9_egQiQ2ApSp-13" edge="1">
          <mxGeometry width="50" height="50" relative="1" as="geometry">
            <mxPoint x="360" y="220" as="sourcePoint" />
            <mxPoint x="410" y="460" as="targetPoint" />
          </mxGeometry>
        </mxCell>
        <mxCell id="o4oMkmYJ9_egQiQ2ApSp-26" value="&amp;lt;&amp;lt;includes&amp;gt;&amp;gt;" style="edgeLabel;html=1;align=center;verticalAlign=middle;resizable=0;points=[];" parent="o4oMkmYJ9_egQiQ2ApSp-25" vertex="1" connectable="0">
          <mxGeometry x="-0.0769" y="-1" relative="1" as="geometry">
            <mxPoint as="offset" />
          </mxGeometry>
        </mxCell>
        <mxCell id="o4oMkmYJ9_egQiQ2ApSp-28" value="" style="endArrow=classic;html=1;rounded=0;exitX=1;exitY=1;exitDx=0;exitDy=0;entryX=0.317;entryY=0.038;entryDx=0;entryDy=0;dashed=1;entryPerimeter=0;" parent="1" source="o4oMkmYJ9_egQiQ2ApSp-5" target="o4oMkmYJ9_egQiQ2ApSp-13" edge="1">
          <mxGeometry width="50" height="50" relative="1" as="geometry">
            <mxPoint x="360" y="410" as="sourcePoint" />
            <mxPoint x="450" y="380" as="targetPoint" />
          </mxGeometry>
        </mxCell>
        <mxCell id="o4oMkmYJ9_egQiQ2ApSp-29" value="&amp;lt;&amp;lt;includes&amp;gt;&amp;gt;" style="edgeLabel;html=1;align=center;verticalAlign=middle;resizable=0;points=[];" parent="o4oMkmYJ9_egQiQ2ApSp-28" vertex="1" connectable="0">
          <mxGeometry x="-0.0769" y="-1" relative="1" as="geometry">
            <mxPoint as="offset" />
          </mxGeometry>
        </mxCell>
        <mxCell id="o4oMkmYJ9_egQiQ2ApSp-30" value="" style="endArrow=none;html=1;rounded=0;exitX=0;exitY=0.3333333333333333;exitDx=0;exitDy=0;exitPerimeter=0;entryX=1;entryY=0.5;entryDx=0;entryDy=0;" parent="1" source="o4oMkmYJ9_egQiQ2ApSp-2" target="o4oMkmYJ9_egQiQ2ApSp-11" edge="1">
          <mxGeometry width="50" height="50" relative="1" as="geometry">
            <mxPoint x="140" y="340" as="sourcePoint" />
            <mxPoint x="240" y="190" as="targetPoint" />
          </mxGeometry>
        </mxCell>
        <mxCell id="o4oMkmYJ9_egQiQ2ApSp-31" value="" style="endArrow=none;html=1;rounded=0;entryX=1;entryY=0.5;entryDx=0;entryDy=0;" parent="1" target="o4oMkmYJ9_egQiQ2ApSp-19" edge="1">
          <mxGeometry width="50" height="50" relative="1" as="geometry">
            <mxPoint x="670" y="250" as="sourcePoint" />
            <mxPoint x="620" y="390" as="targetPoint" />
          </mxGeometry>
        </mxCell>
        <mxCell id="o4oMkmYJ9_egQiQ2ApSp-32" value="" style="endArrow=none;html=1;rounded=0;entryX=1;entryY=0.5;entryDx=0;entryDy=0;" parent="1" target="o4oMkmYJ9_egQiQ2ApSp-15" edge="1">
          <mxGeometry width="50" height="50" relative="1" as="geometry">
            <mxPoint x="670" y="250" as="sourcePoint" />
            <mxPoint x="630" y="310" as="targetPoint" />
          </mxGeometry>
        </mxCell>
      </root>
    </mxGraphModel>
  </diagram>
</mxfile>
